<svg width="132" height="131" viewBox="0 0 132 131" fill="none" xmlns="http://www.w3.org/2000/svg">
<g id="&#240;&#159;&#166;&#134; icon &#34;profile 2user&#34;" filter="url(#filter0_d_528_27)">
<g id="Group">
<path id="Vector" d="M39.85 0.13269C25.2119 0.13269 13.3115 12.0331 13.3115 26.6711C13.3115 41.0298 24.5415 52.6509 39.1795 53.1537C39.6265 53.0978 40.0735 53.0978 40.4087 53.1537H40.688H40.7998C55.1026 52.6509 66.3325 41.0298 66.3884 26.6711C66.3884 12.0331 54.488 0.13269 39.85 0.13269Z" fill="white" fill-opacity="0.7"/>
<path id="Vector_2" d="M68.2372 68.009C52.6493 57.6171 27.2285 57.6171 11.5289 68.009C4.43339 72.758 0.522461 79.1831 0.522461 86.0552C0.522461 92.9272 4.43339 99.2964 11.4731 103.99C19.2949 109.241 29.5751 111.867 39.8552 111.867C50.1352 111.867 60.4153 109.241 68.2372 103.99C75.2768 99.2406 79.1878 92.8713 79.1878 85.9434C79.1319 79.0714 75.2768 72.7021 68.2372 68.009Z" fill="white" fill-opacity="0.7"/>
<path id="Vector_3" d="M101.248 29.9571C102.142 40.796 94.4321 50.2937 83.7608 51.5787C83.705 51.5787 83.705 51.5787 83.6491 51.5787H83.4815C83.1463 51.5787 82.8111 51.5787 82.5317 51.6904C77.1123 51.9698 72.1398 50.2378 68.3965 47.0532C74.1511 41.9134 77.4475 34.2033 76.777 25.8227C76.386 21.2972 74.8216 17.1628 72.475 13.643C74.5981 12.5814 77.0564 11.911 79.5706 11.6875C90.5212 10.7377 100.298 18.8948 101.248 29.9571Z" fill="white" fill-opacity="0.7"/>
<path id="Vector_4" d="M112.416 81.6498C111.969 87.0693 108.505 91.7624 102.695 94.947C97.1076 98.0199 90.0679 99.4725 83.0841 99.3049C87.1068 95.6733 89.4533 91.1478 89.9003 86.343C90.459 79.415 87.1626 72.7664 80.5699 67.4588C76.8266 64.4976 72.4687 62.1511 67.7197 60.4191C80.0671 56.8434 95.5991 59.2458 105.153 66.9559C110.293 71.0903 112.919 76.2863 112.416 81.6498Z" fill="white" fill-opacity="0.7"/>
</g>
</g>
<defs>
<filter id="filter0_d_528_27" x="0.522461" y="0.13269" width="130.954" height="130.734" filterUnits="userSpaceOnUse" color-interpolation-filters="sRGB">
<feFlood flood-opacity="0" result="BackgroundImageFix"/>
<feColorMatrix in="SourceAlpha" type="matrix" values="0 0 0 0 0 0 0 0 0 0 0 0 0 0 0 0 0 0 127 0" result="hardAlpha"/>
<feOffset dx="12" dy="12"/>
<feGaussianBlur stdDeviation="3.5"/>
<feComposite in2="hardAlpha" operator="out"/>
<feColorMatrix type="matrix" values="0 0 0 0 0 0 0 0 0 0 0 0 0 0 0 0 0 0 0.25 0"/>
<feBlend mode="normal" in2="BackgroundImageFix" result="effect1_dropShadow_528_27"/>
<feBlend mode="normal" in="SourceGraphic" in2="effect1_dropShadow_528_27" result="shape"/>
</filter>
</defs>
</svg>
