<svg width="47" height="47" viewBox="0 0 47 47" fill="none" xmlns="http://www.w3.org/2000/svg">
<g id="&#240;&#159;&#166;&#134; icon &#34;logout&#34;" filter="url(#filter0_d_631_409)">
<g id="Group">
<path id="Vector" d="M18.0398 27.3409H17.8717C12.131 27.3409 9.36411 25.0782 8.88572 20.0098C8.834 19.4797 9.22188 19.0013 9.76492 18.9496C10.2821 18.8979 10.7734 19.2987 10.8251 19.8288C11.2001 23.8887 13.1137 25.4014 17.8846 25.4014H18.0527C23.315 25.4014 25.1769 23.5396 25.1769 18.2773V9.84725C25.1769 4.58496 23.315 2.72311 18.0527 2.72311H17.8846C13.0878 2.72311 11.1742 4.26172 10.8251 8.39915C10.7605 8.92926 10.308 9.33007 9.76492 9.27836C9.22188 9.23957 8.834 8.76118 8.87279 8.23107C9.31239 3.08514 12.0922 0.783691 17.8717 0.783691H18.0398C24.3882 0.783691 27.1033 3.49888 27.1033 9.84725V18.2773C27.1033 24.6257 24.3882 27.3409 18.0398 27.3409Z" fill="white" fill-opacity="0.7"/>
<path id="Vector_2" d="M17.7273 15.0319H3.01366C2.48355 15.0319 2.04395 14.5923 2.04395 14.0622C2.04395 13.5321 2.48355 13.0925 3.01366 13.0925H17.7273C18.2575 13.0925 18.6971 13.5321 18.6971 14.0622C18.6971 14.5923 18.2575 15.0319 17.7273 15.0319Z" fill="white" fill-opacity="0.7"/>
<path id="Vector_3" d="M5.89746 19.3634C5.6518 19.3634 5.40614 19.2728 5.2122 19.0789L0.880825 14.7475C0.505871 14.3726 0.505871 13.752 0.880825 13.377L5.2122 9.04562C5.58715 8.67067 6.20777 8.67067 6.58272 9.04562C6.95768 9.42057 6.95768 10.0412 6.58272 10.4161L2.93661 14.0623L6.58272 17.7084C6.95768 18.0833 6.95768 18.7039 6.58272 19.0789C6.40171 19.2728 6.14312 19.3634 5.89746 19.3634Z" fill="white" fill-opacity="0.7"/>
</g>
</g>
<defs>
<filter id="filter0_d_631_409" x="0.599609" y="0.783691" width="45.5039" height="45.5571" filterUnits="userSpaceOnUse" color-interpolation-filters="sRGB">
<feFlood flood-opacity="0" result="BackgroundImageFix"/>
<feColorMatrix in="SourceAlpha" type="matrix" values="0 0 0 0 0 0 0 0 0 0 0 0 0 0 0 0 0 0 127 0" result="hardAlpha"/>
<feOffset dx="12" dy="12"/>
<feGaussianBlur stdDeviation="3.5"/>
<feComposite in2="hardAlpha" operator="out"/>
<feColorMatrix type="matrix" values="0 0 0 0 0 0 0 0 0 0 0 0 0 0 0 0 0 0 0.25 0"/>
<feBlend mode="normal" in2="BackgroundImageFix" result="effect1_dropShadow_631_409"/>
<feBlend mode="normal" in="SourceGraphic" in2="effect1_dropShadow_631_409" result="shape"/>
</filter>
</defs>
</svg>
